<svg width="400" height="286" viewBox="0 0 375 286" fill="none" xmlns="http://www.w3.org/2000/svg">
<path d="M196.253 262C89.9747 221 61.4109 246.839 -13 286V-2.5H400V222C400 249.5 327.449 312.612 196.253 262Z" fill="#E86831"/>
<path d="M39.338 163.378C43.1886 163.378 45.114 162.061 45.114 159.426C45.114 158.615 44.9366 157.931 44.582 157.374C44.2526 156.791 43.7966 156.297 43.214 155.892C42.6313 155.461 41.96 155.094 41.2 154.79C40.4653 154.486 39.68 154.182 38.844 153.878C37.8813 153.549 36.9693 153.181 36.108 152.776C35.2466 152.345 34.4993 151.851 33.866 151.294C33.2326 150.711 32.726 150.027 32.346 149.242C31.9913 148.457 31.814 147.507 31.814 146.392C31.814 144.087 32.5993 142.288 34.17 140.996C35.7406 139.704 37.9066 139.058 40.668 139.058C42.264 139.058 43.708 139.235 45 139.59C46.3173 139.919 47.28 140.287 47.888 140.692L46.71 143.694C46.178 143.365 45.38 143.048 44.316 142.744C43.2773 142.415 42.0613 142.25 40.668 142.25C39.9586 142.25 39.3 142.326 38.692 142.478C38.084 142.63 37.552 142.858 37.096 143.162C36.64 143.466 36.2726 143.859 35.994 144.34C35.7406 144.796 35.614 145.341 35.614 145.974C35.614 146.683 35.7533 147.279 36.032 147.76C36.3106 148.241 36.7033 148.672 37.21 149.052C37.7166 149.407 38.2993 149.736 38.958 150.04C39.642 150.344 40.3893 150.648 41.2 150.952C42.34 151.408 43.3786 151.864 44.316 152.32C45.2786 152.776 46.102 153.321 46.786 153.954C47.4953 154.587 48.04 155.347 48.42 156.234C48.8 157.095 48.99 158.147 48.99 159.388C48.99 161.693 48.1413 163.467 46.444 164.708C44.772 165.949 42.4033 166.57 39.338 166.57C38.2993 166.57 37.3366 166.494 36.45 166.342C35.5886 166.215 34.816 166.063 34.132 165.886C33.448 165.683 32.8526 165.481 32.346 165.278C31.8646 165.05 31.4846 164.86 31.206 164.708L32.308 161.668C32.8906 161.997 33.7773 162.365 34.968 162.77C36.1586 163.175 37.6153 163.378 39.338 163.378ZM70.6586 156.12C70.6586 157.691 70.4306 159.109 69.9746 160.376C69.5186 161.643 68.8726 162.732 68.0366 163.644C67.2259 164.556 66.2506 165.265 65.1106 165.772C63.9706 166.253 62.7292 166.494 61.3866 166.494C60.0439 166.494 58.8026 166.253 57.6626 165.772C56.5226 165.265 55.5346 164.556 54.6986 163.644C53.8879 162.732 53.2546 161.643 52.7986 160.376C52.3426 159.109 52.1146 157.691 52.1146 156.12C52.1146 154.575 52.3426 153.169 52.7986 151.902C53.2546 150.61 53.8879 149.508 54.6986 148.596C55.5346 147.684 56.5226 146.987 57.6626 146.506C58.8026 145.999 60.0439 145.746 61.3866 145.746C62.7292 145.746 63.9706 145.999 65.1106 146.506C66.2506 146.987 67.2259 147.684 68.0366 148.596C68.8726 149.508 69.5186 150.61 69.9746 151.902C70.4306 153.169 70.6586 154.575 70.6586 156.12ZM66.9726 156.12C66.9726 153.891 66.4659 152.13 65.4526 150.838C64.4646 149.521 63.1092 148.862 61.3866 148.862C59.6639 148.862 58.2959 149.521 57.2826 150.838C56.2946 152.13 55.8006 153.891 55.8006 156.12C55.8006 158.349 56.2946 160.123 57.2826 161.44C58.2959 162.732 59.6639 163.378 61.3866 163.378C63.1092 163.378 64.4646 162.732 65.4526 161.44C66.4659 160.123 66.9726 158.349 66.9726 156.12ZM79.1646 147.114C79.5953 146.835 80.2413 146.544 81.1026 146.24C81.9893 145.936 83.0026 145.784 84.1426 145.784C85.5613 145.784 86.8153 146.037 87.9046 146.544C89.0193 147.051 89.9566 147.76 90.7166 148.672C91.4766 149.584 92.0466 150.673 92.4266 151.94C92.832 153.207 93.0346 154.6 93.0346 156.12C93.0346 157.716 92.794 159.16 92.3126 160.452C91.8566 161.719 91.198 162.795 90.3366 163.682C89.4753 164.569 88.4366 165.253 87.2206 165.734C86.0046 166.215 84.6366 166.456 83.1166 166.456C81.47 166.456 80.0133 166.342 78.7466 166.114C77.48 165.886 76.4413 165.658 75.6306 165.43V137.12L79.1646 136.512V147.114ZM79.1646 162.922C79.5193 163.023 80.0133 163.125 80.6466 163.226C81.3053 163.302 82.116 163.34 83.0786 163.34C84.9786 163.34 86.4986 162.719 87.6386 161.478C88.7786 160.211 89.3486 158.425 89.3486 156.12C89.3486 155.107 89.2473 154.157 89.0446 153.27C88.842 152.383 88.5126 151.623 88.0566 150.99C87.6006 150.331 87.0053 149.825 86.2706 149.47C85.5613 149.09 84.7 148.9 83.6866 148.9C82.724 148.9 81.8373 149.065 81.0266 149.394C80.216 149.723 79.5953 150.065 79.1646 150.42V162.922ZM105.304 145.822C105.608 145.822 105.95 145.847 106.33 145.898C106.735 145.923 107.128 145.974 107.508 146.05C107.888 146.101 108.23 146.164 108.534 146.24C108.863 146.291 109.104 146.341 109.256 146.392L108.648 149.47C108.369 149.369 107.9 149.255 107.242 149.128C106.608 148.976 105.785 148.9 104.772 148.9C104.113 148.9 103.454 148.976 102.796 149.128C102.162 149.255 101.744 149.343 101.542 149.394V166H98.0076V147.076C98.8436 146.772 99.8823 146.493 101.124 146.24C102.365 145.961 103.758 145.822 105.304 145.822ZM111.564 156.158C111.564 154.41 111.817 152.89 112.324 151.598C112.83 150.281 113.502 149.191 114.338 148.33C115.174 147.469 116.136 146.823 117.226 146.392C118.315 145.961 119.43 145.746 120.57 145.746C123.23 145.746 125.269 146.582 126.688 148.254C128.106 149.901 128.816 152.421 128.816 155.816C128.816 155.968 128.816 156.171 128.816 156.424C128.816 156.652 128.803 156.867 128.778 157.07H115.25C115.402 159.122 115.997 160.68 117.036 161.744C118.074 162.808 119.696 163.34 121.9 163.34C123.141 163.34 124.18 163.239 125.016 163.036C125.877 162.808 126.523 162.593 126.954 162.39L127.448 165.354C127.017 165.582 126.257 165.823 125.168 166.076C124.104 166.329 122.888 166.456 121.52 166.456C119.797 166.456 118.302 166.203 117.036 165.696C115.794 165.164 114.768 164.442 113.958 163.53C113.147 162.618 112.539 161.541 112.134 160.3C111.754 159.033 111.564 157.653 111.564 156.158ZM125.13 154.22C125.155 152.624 124.75 151.319 123.914 150.306C123.103 149.267 121.976 148.748 120.532 148.748C119.721 148.748 118.999 148.913 118.366 149.242C117.758 149.546 117.238 149.951 116.808 150.458C116.377 150.965 116.035 151.547 115.782 152.206C115.554 152.865 115.402 153.536 115.326 154.22H125.13ZM149.32 146.24C148.332 149.939 147.167 153.485 145.824 156.88C144.507 160.275 143.228 163.315 141.986 166H138.794C137.553 163.315 136.261 160.275 134.918 156.88C133.601 153.485 132.448 149.939 131.46 146.24H135.26C135.564 147.481 135.919 148.811 136.324 150.23C136.755 151.623 137.198 153.017 137.654 154.41C138.136 155.778 138.617 157.108 139.098 158.4C139.58 159.692 140.036 160.845 140.466 161.858C140.897 160.845 141.353 159.692 141.834 158.4C142.316 157.108 142.784 155.778 143.24 154.41C143.722 153.017 144.165 151.623 144.57 150.23C145.001 148.811 145.368 147.481 145.672 146.24H149.32ZM156.501 166H152.967V146.24H156.501V166ZM154.715 142.668C154.081 142.668 153.537 142.465 153.081 142.06C152.65 141.629 152.435 141.059 152.435 140.35C152.435 139.641 152.65 139.083 153.081 138.678C153.537 138.247 154.081 138.032 154.715 138.032C155.348 138.032 155.88 138.247 156.311 138.678C156.767 139.083 156.995 139.641 156.995 140.35C156.995 141.059 156.767 141.629 156.311 142.06C155.88 142.465 155.348 142.668 154.715 142.668ZM175.346 150.42C174.915 150.065 174.295 149.723 173.484 149.394C172.673 149.065 171.787 148.9 170.824 148.9C169.811 148.9 168.937 149.09 168.202 149.47C167.493 149.825 166.91 150.331 166.454 150.99C165.998 151.623 165.669 152.383 165.466 153.27C165.263 154.157 165.162 155.107 165.162 156.12C165.162 158.425 165.732 160.211 166.872 161.478C168.012 162.719 169.532 163.34 171.432 163.34C172.395 163.34 173.193 163.302 173.826 163.226C174.485 163.125 174.991 163.023 175.346 162.922V150.42ZM175.346 137.12L178.88 136.512V165.43C178.069 165.658 177.031 165.886 175.764 166.114C174.497 166.342 173.041 166.456 171.394 166.456C169.874 166.456 168.506 166.215 167.29 165.734C166.074 165.253 165.035 164.569 164.174 163.682C163.313 162.795 162.641 161.719 162.16 160.452C161.704 159.16 161.476 157.716 161.476 156.12C161.476 154.6 161.666 153.207 162.046 151.94C162.451 150.673 163.034 149.584 163.794 148.672C164.554 147.76 165.479 147.051 166.568 146.544C167.683 146.037 168.949 145.784 170.368 145.784C171.508 145.784 172.509 145.936 173.37 146.24C174.257 146.544 174.915 146.835 175.346 147.114V137.12ZM191.643 163.454C192.479 163.454 193.214 163.441 193.847 163.416C194.506 163.365 195.05 163.289 195.481 163.188V157.298C195.228 157.171 194.81 157.07 194.227 156.994C193.67 156.893 192.986 156.842 192.175 156.842C191.643 156.842 191.073 156.88 190.465 156.956C189.882 157.032 189.338 157.197 188.831 157.45C188.35 157.678 187.944 158.007 187.615 158.438C187.286 158.843 187.121 159.388 187.121 160.072C187.121 161.339 187.526 162.225 188.337 162.732C189.148 163.213 190.25 163.454 191.643 163.454ZM191.339 145.746C192.758 145.746 193.948 145.936 194.911 146.316C195.899 146.671 196.684 147.19 197.267 147.874C197.875 148.533 198.306 149.331 198.559 150.268C198.812 151.18 198.939 152.193 198.939 153.308V165.658C198.635 165.709 198.204 165.785 197.647 165.886C197.115 165.962 196.507 166.038 195.823 166.114C195.139 166.19 194.392 166.253 193.581 166.304C192.796 166.38 192.01 166.418 191.225 166.418C190.11 166.418 189.084 166.304 188.147 166.076C187.21 165.848 186.399 165.493 185.715 165.012C185.031 164.505 184.499 163.847 184.119 163.036C183.739 162.225 183.549 161.25 183.549 160.11C183.549 159.021 183.764 158.083 184.195 157.298C184.651 156.513 185.259 155.879 186.019 155.398C186.779 154.917 187.666 154.562 188.679 154.334C189.692 154.106 190.756 153.992 191.871 153.992C192.226 153.992 192.593 154.017 192.973 154.068C193.353 154.093 193.708 154.144 194.037 154.22C194.392 154.271 194.696 154.321 194.949 154.372C195.202 154.423 195.38 154.461 195.481 154.486V153.498C195.481 152.915 195.418 152.345 195.291 151.788C195.164 151.205 194.936 150.699 194.607 150.268C194.278 149.812 193.822 149.457 193.239 149.204C192.682 148.925 191.947 148.786 191.035 148.786C189.87 148.786 188.844 148.875 187.957 149.052C187.096 149.204 186.45 149.369 186.019 149.546L185.601 146.62C186.057 146.417 186.817 146.227 187.881 146.05C188.945 145.847 190.098 145.746 191.339 145.746ZM209.406 163.454C210.85 163.454 211.914 163.264 212.598 162.884C213.308 162.504 213.662 161.896 213.662 161.06C213.662 160.199 213.32 159.515 212.636 159.008C211.952 158.501 210.825 157.931 209.254 157.298C208.494 156.994 207.76 156.69 207.05 156.386C206.366 156.057 205.771 155.677 205.264 155.246C204.758 154.815 204.352 154.296 204.048 153.688C203.744 153.08 203.592 152.333 203.592 151.446C203.592 149.698 204.238 148.317 205.53 147.304C206.822 146.265 208.583 145.746 210.812 145.746C211.37 145.746 211.927 145.784 212.484 145.86C213.042 145.911 213.561 145.987 214.042 146.088C214.524 146.164 214.942 146.253 215.296 146.354C215.676 146.455 215.968 146.544 216.17 146.62L215.524 149.66C215.144 149.457 214.549 149.255 213.738 149.052C212.928 148.824 211.952 148.71 210.812 148.71C209.824 148.71 208.963 148.913 208.228 149.318C207.494 149.698 207.126 150.306 207.126 151.142C207.126 151.573 207.202 151.953 207.354 152.282C207.532 152.611 207.785 152.915 208.114 153.194C208.469 153.447 208.9 153.688 209.406 153.916C209.913 154.144 210.521 154.385 211.23 154.638C212.168 154.993 213.004 155.347 213.738 155.702C214.473 156.031 215.094 156.424 215.6 156.88C216.132 157.336 216.538 157.893 216.816 158.552C217.095 159.185 217.234 159.971 217.234 160.908C217.234 162.732 216.55 164.113 215.182 165.05C213.84 165.987 211.914 166.456 209.406 166.456C207.658 166.456 206.29 166.304 205.302 166C204.314 165.721 203.643 165.506 203.288 165.354L203.934 162.314C204.34 162.466 204.986 162.694 205.872 162.998C206.759 163.302 207.937 163.454 209.406 163.454Z" fill="#FAFAFA"/>
<path d="M204.935 219.968C204.655 219.296 204.277 218.442 203.801 217.406C203.353 216.37 202.863 215.25 202.331 214.046C201.799 212.842 201.225 211.61 200.609 210.35C200.021 209.062 199.461 207.858 198.929 206.738C198.397 205.59 197.893 204.568 197.417 203.672C196.969 202.776 196.605 202.09 196.325 201.614C196.017 204.918 195.765 208.502 195.569 212.366C195.373 216.202 195.205 220.08 195.065 224H191.075C191.187 221.48 191.313 218.946 191.453 216.398C191.593 213.822 191.747 211.302 191.915 208.838C192.111 206.346 192.307 203.924 192.503 201.572C192.727 199.22 192.965 196.994 193.217 194.894H196.787C197.543 196.126 198.355 197.582 199.223 199.262C200.091 200.942 200.959 202.706 201.827 204.554C202.695 206.374 203.535 208.208 204.347 210.056C205.159 211.876 205.901 213.542 206.573 215.054C207.245 213.542 207.987 211.876 208.799 210.056C209.611 208.208 210.451 206.374 211.319 204.554C212.187 202.706 213.055 200.942 213.923 199.262C214.791 197.582 215.603 196.126 216.359 194.894H219.929C220.881 204.274 221.595 213.976 222.071 224H218.081C217.941 220.08 217.773 216.202 217.577 212.366C217.381 208.502 217.129 204.918 216.821 201.614C216.541 202.09 216.163 202.776 215.687 203.672C215.239 204.568 214.749 205.59 214.217 206.738C213.685 207.858 213.111 209.062 212.495 210.35C211.907 211.61 211.347 212.842 210.815 214.046C210.283 215.25 209.779 216.37 209.303 217.406C208.855 218.442 208.491 219.296 208.211 219.968H204.935ZM245.594 223.37C244.698 223.594 243.508 223.832 242.024 224.084C240.568 224.336 238.874 224.462 236.942 224.462C235.262 224.462 233.848 224.224 232.7 223.748C231.552 223.244 230.628 222.544 229.928 221.648C229.228 220.752 228.724 219.702 228.416 218.498C228.108 217.266 227.954 215.908 227.954 214.424V202.16H231.86V213.584C231.86 216.244 232.28 218.148 233.12 219.296C233.96 220.444 235.374 221.018 237.362 221.018C237.782 221.018 238.216 221.004 238.664 220.976C239.112 220.948 239.532 220.92 239.924 220.892C240.316 220.836 240.666 220.794 240.974 220.766C241.31 220.71 241.548 220.654 241.688 220.598V202.16H245.594V223.37ZM258.876 224.42C256.468 224.364 254.76 223.846 253.752 222.866C252.744 221.886 252.24 220.36 252.24 218.288V192.08L256.146 191.408V217.658C256.146 218.302 256.202 218.834 256.314 219.254C256.426 219.674 256.608 220.01 256.86 220.262C257.112 220.514 257.448 220.71 257.868 220.85C258.288 220.962 258.806 221.06 259.422 221.144L258.876 224.42ZM263.808 224V192.08L267.714 191.408V202.58C268.442 202.3 269.212 202.09 270.024 201.95C270.864 201.782 271.69 201.698 272.502 201.698C274.238 201.698 275.68 201.95 276.828 202.454C277.976 202.93 278.886 203.616 279.558 204.512C280.258 205.38 280.748 206.43 281.028 207.662C281.308 208.894 281.448 210.252 281.448 211.736V224H277.542V212.576C277.542 211.232 277.444 210.084 277.248 209.132C277.08 208.18 276.786 207.41 276.366 206.822C275.946 206.234 275.386 205.814 274.686 205.562C273.986 205.282 273.118 205.142 272.082 205.142C271.662 205.142 271.228 205.17 270.78 205.226C270.332 205.282 269.898 205.352 269.478 205.436C269.086 205.492 268.722 205.562 268.386 205.646C268.078 205.73 267.854 205.8 267.714 205.856V224H263.808ZM286.584 213.122C286.584 211.19 286.864 209.51 287.424 208.082C287.984 206.626 288.726 205.422 289.65 204.47C290.574 203.518 291.638 202.804 292.842 202.328C294.046 201.852 295.278 201.614 296.538 201.614C299.478 201.614 301.732 202.538 303.3 204.386C304.868 206.206 305.652 208.992 305.652 212.744C305.652 212.912 305.652 213.136 305.652 213.416C305.652 213.668 305.638 213.906 305.61 214.13H290.658C290.826 216.398 291.484 218.12 292.632 219.296C293.78 220.472 295.572 221.06 298.008 221.06C299.38 221.06 300.528 220.948 301.452 220.724C302.404 220.472 303.118 220.234 303.594 220.01L304.14 223.286C303.664 223.538 302.824 223.804 301.62 224.084C300.444 224.364 299.1 224.504 297.588 224.504C295.684 224.504 294.032 224.224 292.632 223.664C291.26 223.076 290.126 222.278 289.23 221.27C288.334 220.262 287.662 219.072 287.214 217.7C286.794 216.3 286.584 214.774 286.584 213.122ZM301.578 210.98C301.606 209.216 301.158 207.774 300.234 206.654C299.338 205.506 298.092 204.932 296.496 204.932C295.6 204.932 294.802 205.114 294.102 205.478C293.43 205.814 292.856 206.262 292.38 206.822C291.904 207.382 291.526 208.026 291.246 208.754C290.994 209.482 290.826 210.224 290.742 210.98H301.578ZM319.327 201.698C319.663 201.698 320.041 201.726 320.461 201.782C320.909 201.81 321.343 201.866 321.763 201.95C322.183 202.006 322.561 202.076 322.897 202.16C323.261 202.216 323.527 202.272 323.695 202.328L323.023 205.73C322.715 205.618 322.197 205.492 321.469 205.352C320.769 205.184 319.859 205.1 318.739 205.1C318.011 205.1 317.283 205.184 316.555 205.352C315.855 205.492 315.393 205.59 315.169 205.646V224H311.263V203.084C312.187 202.748 313.335 202.44 314.707 202.16C316.079 201.852 317.619 201.698 319.327 201.698Z" fill="#585858"/>
<path d="M41.0454 100.132C40.7374 100.132 40.4001 100.125 40.0334 100.11C39.6814 100.095 39.3221 100.073 38.9554 100.044C38.6034 100.015 38.2514 99.978 37.8994 99.934C37.5474 99.89 37.2247 99.8313 36.9314 99.758V84.974C37.2247 84.9007 37.5474 84.842 37.8994 84.798C38.2514 84.754 38.6034 84.7173 38.9554 84.688C39.3221 84.6587 39.6814 84.6367 40.0334 84.622C40.3854 84.6073 40.7154 84.6 41.0234 84.6C41.9034 84.6 42.7247 84.666 43.4874 84.798C44.2647 84.93 44.9321 85.1573 45.4894 85.48C46.0614 85.788 46.5087 86.1987 46.8314 86.712C47.1541 87.2253 47.3154 87.856 47.3154 88.604C47.3154 89.44 47.1174 90.1293 46.7214 90.672C46.3254 91.2 45.7974 91.596 45.1374 91.86C46.0321 92.124 46.7434 92.542 47.2714 93.114C47.7994 93.686 48.0634 94.4927 48.0634 95.534C48.0634 97.0593 47.4987 98.2107 46.3694 98.988C45.2547 99.7507 43.4801 100.132 41.0454 100.132ZM39.0434 92.894V98.262C39.2047 98.2767 39.3954 98.2913 39.6154 98.306C39.8061 98.3207 40.0261 98.3353 40.2754 98.35C40.5394 98.35 40.8401 98.35 41.1774 98.35C41.8081 98.35 42.4021 98.3133 42.9594 98.24C43.5314 98.152 44.0301 98.0053 44.4554 97.8C44.8807 97.5947 45.2181 97.3087 45.4674 96.942C45.7314 96.5753 45.8634 96.1133 45.8634 95.556C45.8634 95.0573 45.7681 94.6393 45.5774 94.302C45.3867 93.95 45.1081 93.6713 44.7414 93.466C44.3894 93.2607 43.9641 93.114 43.4654 93.026C42.9667 92.938 42.4094 92.894 41.7934 92.894H39.0434ZM39.0434 91.178H41.2874C41.8154 91.178 42.3141 91.1413 42.7834 91.068C43.2527 90.9947 43.6561 90.8627 43.9934 90.672C44.3454 90.4813 44.6167 90.232 44.8074 89.924C45.0127 89.616 45.1154 89.2273 45.1154 88.758C45.1154 88.318 45.0127 87.9513 44.8074 87.658C44.6021 87.35 44.3161 87.108 43.9494 86.932C43.5974 86.7413 43.1794 86.602 42.6954 86.514C42.2114 86.426 41.6981 86.382 41.1554 86.382C40.6127 86.382 40.1874 86.3893 39.8794 86.404C39.5714 86.4187 39.2927 86.4407 39.0434 86.47V91.178ZM50.2981 94.302C50.2981 93.29 50.4448 92.41 50.7381 91.662C51.0315 90.8993 51.4201 90.2687 51.9041 89.77C52.3881 89.2713 52.9455 88.8973 53.5761 88.648C54.2068 88.3987 54.8521 88.274 55.5121 88.274C57.0521 88.274 58.2328 88.758 59.0541 89.726C59.8755 90.6793 60.2861 92.1387 60.2861 94.104C60.2861 94.192 60.2861 94.3093 60.2861 94.456C60.2861 94.588 60.2788 94.7127 60.2641 94.83H52.4321C52.5201 96.018 52.8648 96.92 53.4661 97.536C54.0675 98.152 55.0061 98.46 56.2821 98.46C57.0008 98.46 57.6021 98.4013 58.0861 98.284C58.5848 98.152 58.9588 98.0273 59.2081 97.91L59.4941 99.626C59.2448 99.758 58.8048 99.8973 58.1741 100.044C57.5581 100.191 56.8541 100.264 56.0621 100.264C55.0648 100.264 54.1995 100.117 53.4661 99.824C52.7475 99.516 52.1535 99.098 51.6841 98.57C51.2148 98.042 50.8628 97.4187 50.6281 96.7C50.4081 95.9667 50.2981 95.1673 50.2981 94.302ZM58.1521 93.18C58.1668 92.256 57.9321 91.5007 57.4481 90.914C56.9788 90.3127 56.3261 90.012 55.4901 90.012C55.0208 90.012 54.6028 90.1073 54.2361 90.298C53.8841 90.474 53.5835 90.7087 53.3341 91.002C53.0848 91.2953 52.8868 91.6327 52.7401 92.014C52.6081 92.3953 52.5201 92.784 52.4761 93.18H58.1521ZM63.2252 88.89C63.6945 88.7727 64.3105 88.648 65.0732 88.516C65.8505 88.384 66.7452 88.318 67.7572 88.318C68.4905 88.318 69.1065 88.4207 69.6052 88.626C70.1039 88.8167 70.5219 89.1027 70.8592 89.484C70.9619 89.4107 71.1232 89.308 71.3432 89.176C71.5632 89.044 71.8345 88.9193 72.1572 88.802C72.4799 88.67 72.8392 88.56 73.2352 88.472C73.6312 88.3693 74.0565 88.318 74.5112 88.318C75.3912 88.318 76.1099 88.45 76.6672 88.714C77.2245 88.9633 77.6572 89.3227 77.9652 89.792C78.2879 90.2613 78.5005 90.8187 78.6032 91.464C78.7205 92.1093 78.7792 92.8133 78.7792 93.576V100H76.7332V94.016C76.7332 93.3413 76.6965 92.762 76.6232 92.278C76.5645 91.794 76.4399 91.3907 76.2492 91.068C76.0732 90.7453 75.8239 90.5107 75.5012 90.364C75.1932 90.2027 74.7899 90.122 74.2912 90.122C73.6019 90.122 73.0299 90.2173 72.5752 90.408C72.1352 90.584 71.8345 90.7453 71.6732 90.892C71.7905 91.2733 71.8785 91.6913 71.9372 92.146C71.9959 92.6007 72.0252 93.0773 72.0252 93.576V100H69.9792V94.016C69.9792 93.3413 69.9425 92.762 69.8692 92.278C69.7959 91.794 69.6639 91.3907 69.4732 91.068C69.2972 90.7453 69.0479 90.5107 68.7252 90.364C68.4172 90.2027 68.0212 90.122 67.5372 90.122C67.3319 90.122 67.1119 90.1293 66.8772 90.144C66.6425 90.1587 66.4152 90.1807 66.1952 90.21C65.9899 90.2247 65.7992 90.2467 65.6232 90.276C65.4472 90.3053 65.3299 90.3273 65.2712 90.342V100H63.2252V88.89ZM80.9864 92.454H86.4204V94.368H80.9864V92.454ZM97.6806 88.56C97.1086 90.7013 96.434 92.7547 95.6566 94.72C94.894 96.6853 94.1533 98.4453 93.4346 100H91.5866C90.868 98.4453 90.12 96.6853 89.3426 94.72C88.58 92.7547 87.9126 90.7013 87.3406 88.56H89.5406C89.7166 89.2787 89.922 90.0487 90.1566 90.87C90.406 91.6767 90.6626 92.4833 90.9266 93.29C91.2053 94.082 91.484 94.852 91.7626 95.6C92.0413 96.348 92.3053 97.0153 92.5546 97.602C92.804 97.0153 93.068 96.348 93.3466 95.6C93.6253 94.852 93.8966 94.082 94.1606 93.29C94.4393 92.4833 94.696 91.6767 94.9306 90.87C95.18 90.0487 95.3926 89.2787 95.5686 88.56H97.6806ZM101.838 100H99.7916V88.56H101.838V100ZM100.804 86.492C100.437 86.492 100.122 86.3747 99.8576 86.14C99.6083 85.8907 99.4836 85.5607 99.4836 85.15C99.4836 84.7393 99.6083 84.4167 99.8576 84.182C100.122 83.9327 100.437 83.808 100.804 83.808C101.17 83.808 101.478 83.9327 101.728 84.182C101.992 84.4167 102.124 84.7393 102.124 85.15C102.124 85.5607 101.992 85.8907 101.728 86.14C101.478 86.3747 101.17 86.492 100.804 86.492ZM105.356 88.89C105.825 88.7727 106.449 88.648 107.226 88.516C108.003 88.384 108.898 88.318 109.91 88.318C110.819 88.318 111.575 88.45 112.176 88.714C112.777 88.9633 113.254 89.3227 113.606 89.792C113.973 90.2467 114.229 90.7967 114.376 91.442C114.523 92.0873 114.596 92.7987 114.596 93.576V100H112.55V94.016C112.55 93.312 112.499 92.7107 112.396 92.212C112.308 91.7133 112.154 91.31 111.934 91.002C111.714 90.694 111.421 90.474 111.054 90.342C110.687 90.1953 110.233 90.122 109.69 90.122C109.47 90.122 109.243 90.1293 109.008 90.144C108.773 90.1587 108.546 90.1807 108.326 90.21C108.121 90.2247 107.93 90.2467 107.754 90.276C107.593 90.3053 107.475 90.3273 107.402 90.342V100H105.356V88.89ZM125.381 90.98C125.132 90.7747 124.772 90.5767 124.303 90.386C123.834 90.1953 123.32 90.1 122.763 90.1C122.176 90.1 121.67 90.21 121.245 90.43C120.834 90.6353 120.497 90.9287 120.233 91.31C119.969 91.6767 119.778 92.1167 119.661 92.63C119.544 93.1433 119.485 93.6933 119.485 94.28C119.485 95.6147 119.815 96.6487 120.475 97.382C121.135 98.1007 122.015 98.46 123.115 98.46C123.672 98.46 124.134 98.438 124.501 98.394C124.882 98.3353 125.176 98.2767 125.381 98.218V90.98ZM125.381 83.28L127.427 82.928V99.67C126.958 99.802 126.356 99.934 125.623 100.066C124.89 100.198 124.046 100.264 123.093 100.264C122.213 100.264 121.421 100.125 120.717 99.846C120.013 99.5673 119.412 99.1713 118.913 98.658C118.414 98.1447 118.026 97.5213 117.747 96.788C117.483 96.04 117.351 95.204 117.351 94.28C117.351 93.4 117.461 92.5933 117.681 91.86C117.916 91.1267 118.253 90.496 118.693 89.968C119.133 89.44 119.668 89.0293 120.299 88.736C120.944 88.4427 121.678 88.296 122.499 88.296C123.159 88.296 123.738 88.384 124.237 88.56C124.75 88.736 125.132 88.9047 125.381 89.066V83.28ZM134.816 98.526C135.3 98.526 135.725 98.5187 136.092 98.504C136.473 98.4747 136.789 98.4307 137.038 98.372V94.962C136.891 94.8887 136.649 94.83 136.312 94.786C135.989 94.7273 135.593 94.698 135.124 94.698C134.816 94.698 134.486 94.72 134.134 94.764C133.797 94.808 133.481 94.9033 133.188 95.05C132.909 95.182 132.675 95.3727 132.484 95.622C132.293 95.8567 132.198 96.172 132.198 96.568C132.198 97.3013 132.433 97.8147 132.902 98.108C133.371 98.3867 134.009 98.526 134.816 98.526ZM134.64 88.274C135.461 88.274 136.151 88.384 136.708 88.604C137.28 88.8093 137.735 89.11 138.072 89.506C138.424 89.8873 138.673 90.3493 138.82 90.892C138.967 91.42 139.04 92.0067 139.04 92.652V99.802C138.864 99.8313 138.615 99.8753 138.292 99.934C137.984 99.978 137.632 100.022 137.236 100.066C136.84 100.11 136.407 100.147 135.938 100.176C135.483 100.22 135.029 100.242 134.574 100.242C133.929 100.242 133.335 100.176 132.792 100.044C132.249 99.912 131.78 99.7067 131.384 99.428C130.988 99.1347 130.68 98.7533 130.46 98.284C130.24 97.8147 130.13 97.25 130.13 96.59C130.13 95.9593 130.255 95.4167 130.504 94.962C130.768 94.5073 131.12 94.1407 131.56 93.862C132 93.5833 132.513 93.378 133.1 93.246C133.687 93.114 134.303 93.048 134.948 93.048C135.153 93.048 135.366 93.0627 135.586 93.092C135.806 93.1067 136.011 93.136 136.202 93.18C136.407 93.2093 136.583 93.2387 136.73 93.268C136.877 93.2973 136.979 93.3193 137.038 93.334V92.762C137.038 92.4247 137.001 92.0947 136.928 91.772C136.855 91.4347 136.723 91.1413 136.532 90.892C136.341 90.628 136.077 90.4227 135.74 90.276C135.417 90.1147 134.992 90.034 134.464 90.034C133.789 90.034 133.195 90.0853 132.682 90.188C132.183 90.276 131.809 90.3713 131.56 90.474L131.318 88.78C131.582 88.6627 132.022 88.5527 132.638 88.45C133.254 88.3327 133.921 88.274 134.64 88.274ZM151.402 98.526C151.886 98.526 152.311 98.5187 152.678 98.504C153.059 98.4747 153.375 98.4307 153.624 98.372V94.962C153.477 94.8887 153.235 94.83 152.898 94.786C152.575 94.7273 152.179 94.698 151.71 94.698C151.402 94.698 151.072 94.72 150.72 94.764C150.383 94.808 150.067 94.9033 149.774 95.05C149.495 95.182 149.261 95.3727 149.07 95.622C148.879 95.8567 148.784 96.172 148.784 96.568C148.784 97.3013 149.019 97.8147 149.488 98.108C149.957 98.3867 150.595 98.526 151.402 98.526ZM151.226 88.274C152.047 88.274 152.737 88.384 153.294 88.604C153.866 88.8093 154.321 89.11 154.658 89.506C155.01 89.8873 155.259 90.3493 155.406 90.892C155.553 91.42 155.626 92.0067 155.626 92.652V99.802C155.45 99.8313 155.201 99.8753 154.878 99.934C154.57 99.978 154.218 100.022 153.822 100.066C153.426 100.11 152.993 100.147 152.524 100.176C152.069 100.22 151.615 100.242 151.16 100.242C150.515 100.242 149.921 100.176 149.378 100.044C148.835 99.912 148.366 99.7067 147.97 99.428C147.574 99.1347 147.266 98.7533 147.046 98.284C146.826 97.8147 146.716 97.25 146.716 96.59C146.716 95.9593 146.841 95.4167 147.09 94.962C147.354 94.5073 147.706 94.1407 148.146 93.862C148.586 93.5833 149.099 93.378 149.686 93.246C150.273 93.114 150.889 93.048 151.534 93.048C151.739 93.048 151.952 93.0627 152.172 93.092C152.392 93.1067 152.597 93.136 152.788 93.18C152.993 93.2093 153.169 93.2387 153.316 93.268C153.463 93.2973 153.565 93.3193 153.624 93.334V92.762C153.624 92.4247 153.587 92.0947 153.514 91.772C153.441 91.4347 153.309 91.1413 153.118 90.892C152.927 90.628 152.663 90.4227 152.326 90.276C152.003 90.1147 151.578 90.034 151.05 90.034C150.375 90.034 149.781 90.0853 149.268 90.188C148.769 90.276 148.395 90.3713 148.146 90.474L147.904 88.78C148.168 88.6627 148.608 88.5527 149.224 88.45C149.84 88.3327 150.507 88.274 151.226 88.274ZM169.122 94.28C169.122 95.1893 168.99 96.0107 168.726 96.744C168.462 97.4773 168.088 98.108 167.604 98.636C167.135 99.164 166.57 99.5747 165.91 99.868C165.25 100.147 164.531 100.286 163.754 100.286C162.977 100.286 162.258 100.147 161.598 99.868C160.938 99.5747 160.366 99.164 159.882 98.636C159.413 98.108 159.046 97.4773 158.782 96.744C158.518 96.0107 158.386 95.1893 158.386 94.28C158.386 93.3853 158.518 92.5713 158.782 91.838C159.046 91.09 159.413 90.452 159.882 89.924C160.366 89.396 160.938 88.9927 161.598 88.714C162.258 88.4207 162.977 88.274 163.754 88.274C164.531 88.274 165.25 88.4207 165.91 88.714C166.57 88.9927 167.135 89.396 167.604 89.924C168.088 90.452 168.462 91.09 168.726 91.838C168.99 92.5713 169.122 93.3853 169.122 94.28ZM166.988 94.28C166.988 92.9893 166.695 91.97 166.108 91.222C165.536 90.4593 164.751 90.078 163.754 90.078C162.757 90.078 161.965 90.4593 161.378 91.222C160.806 91.97 160.52 92.9893 160.52 94.28C160.52 95.5707 160.806 96.5973 161.378 97.36C161.965 98.108 162.757 98.482 163.754 98.482C164.751 98.482 165.536 98.108 166.108 97.36C166.695 96.5973 166.988 95.5707 166.988 94.28Z" fill="white"/>
</svg>
